<?xml version="1.0" encoding="UTF-8"?>
<svg version="1.1" xmlns="http://www.w3.org/2000/svg" width="618" height="413">
<path d="M0 0 C5.8738087 0.09826904 11.23579927 2.65202152 16.65234375 4.7109375 C19.1452992 5.63184579 21.63917336 6.5487845 24.13671875 7.45703125 C24.78533371 7.69315628 25.43394867 7.92928131 26.10221863 8.17256165 C37.58637822 12.31268011 49.31176113 15.75157414 60.97998047 19.32910156 C63.57749942 20.13756708 66.15859768 20.97335906 68.734375 21.84765625 C75.00882607 23.96887552 81.36853629 25.81861546 87.71484375 27.7109375 C89.06242758 28.11341402 90.41000239 28.51592074 91.75756836 28.91845703 C94.39393822 29.70565277 97.03062118 30.49178917 99.66748047 31.27734375 C102.61321936 32.15640251 105.55715287 33.04101467 108.5 33.9296875 C115.62270945 36.0702516 122.74691658 37.99113837 130.01171875 39.6015625 C134.68601511 40.67323045 139.30344383 41.93403752 143.9296875 43.1953125 C146.99483952 44.023849 150.0699286 44.79337411 153.15625 45.5390625 C185.94663521 53.57118632 217.45671304 66.20213942 248.05126953 80.33789062 C250.09016536 81.27842393 252.13401563 82.20713181 254.1796875 83.1328125 C261.78628184 86.60037984 269.18168409 90.3545781 276.49487305 94.40429688 C281.57610943 97.28872588 281.57610943 97.28872588 287.21484375 98.3359375 C289.70331956 97.33994898 291.88107773 96.30349057 294.21484375 95.0234375 C295.66174676 94.26758766 297.10971606 93.51377643 298.55859375 92.76171875 C299.32171875 92.36162598 300.08484375 91.9615332 300.87109375 91.54931641 C324.74735212 79.18837848 349.82670796 68.27067946 375.09863281 59.10595703 C377.02574265 58.40474517 378.94499604 57.68203626 380.86328125 56.95703125 C390.30380018 53.44709472 399.95192134 50.74135576 409.64990234 48.05029297 C411.96216329 47.40631091 414.27072937 46.75100237 416.578125 46.08984375 C425.6413793 43.50833016 434.75744256 41.17310453 443.90234375 38.8984375 C445.10979248 38.59728027 446.31724121 38.29612305 447.5612793 37.98583984 C457.16307889 35.59263136 457.16307889 35.59263136 461.23583984 34.59863281 C476.96309358 30.75690227 492.23731304 25.81788194 507.54394531 20.58642578 C513.19539195 18.66126552 518.86140196 16.7804111 524.52734375 14.8984375 C526.39851656 14.27497683 528.26961509 13.65129312 530.140625 13.02734375 C531.00115479 12.74052734 531.86168457 12.45371094 532.74829102 12.15820312 C534.32957421 11.63105655 535.91079715 11.10372918 537.49194336 10.57617188 C541.53215333 9.22839251 545.57388764 7.88535899 549.6171875 6.546875 C551.46224344 5.93490747 553.30729549 5.32292821 555.15234375 4.7109375 C556.09658203 4.39898437 557.04082031 4.08703125 558.01367188 3.765625 C559.36428711 3.31703125 559.36428711 3.31703125 560.7421875 2.859375 C561.55421631 2.59044434 562.36624512 2.32151367 563.20288086 2.04443359 C565.24838522 1.37114188 565.24838522 1.37114188 567.21484375 0.3359375 C569.54783035 0.29571359 571.88191041 0.29273503 574.21484375 0.3359375 C573.37213706 10.9584771 571.03801079 20.43692093 567.4609375 30.4453125 C565.58738626 35.820737 564.27511513 41.2314457 563.03515625 46.78515625 C562.14557056 50.63579146 561.16962774 54.45495727 560.15234375 58.2734375 C559.83136719 59.47871094 559.51039063 60.68398437 559.1796875 61.92578125 C558.28143823 65.1005651 557.27471108 68.212118 556.21484375 71.3359375 C555.74879857 72.85442535 555.29018663 74.37521895 554.83984375 75.8984375 C553.00635762 82.05707038 551.11064062 88.19625018 549.21484375 94.3359375 C548.55484375 94.3359375 547.89484375 94.3359375 547.21484375 94.3359375 C547.10269531 95.35816406 546.99054687 96.38039063 546.875 97.43359375 C546.22686102 101.26490051 545.21394521 104.22898513 543.65234375 107.7734375 C543.39203369 108.36543945 543.13172363 108.95744141 542.86352539 109.56738281 C539.84759581 116.32658734 536.50172568 122.92543665 533.14013672 129.51757812 C531.81756701 132.11665442 530.51606519 134.72612226 529.21484375 137.3359375 C528.54817708 138.66927083 527.88151042 140.00260417 527.21484375 141.3359375 C526.55484375 141.3359375 525.89484375 141.3359375 525.21484375 141.3359375 C524.98796875 142.3465625 524.76109375 143.3571875 524.52734375 144.3984375 C523.28086499 148.7924993 521.09300202 151.81019363 518.21484375 155.3359375 C517.55484375 155.3359375 516.89484375 155.3359375 516.21484375 155.3359375 C515.97894531 156.05394531 515.74304688 156.77195313 515.5 157.51171875 C514.00271046 160.80211492 512.12703849 162.8977983 509.65234375 165.5234375 C506.57298577 168.67782687 506.57298577 168.67782687 504.21484375 172.3359375 C503.55484375 172.3359375 502.89484375 172.3359375 502.21484375 172.3359375 C501.94671875 172.9753125 501.67859375 173.6146875 501.40234375 174.2734375 C500.21484375 176.3359375 500.21484375 176.3359375 497.21484375 177.3359375 C496.88484375 178.3259375 496.55484375 179.3159375 496.21484375 180.3359375 C494.76293945 181.72705078 494.76293945 181.72705078 492.890625 183.15625 C492.19839844 183.68726318 491.50617188 184.21827637 490.79296875 184.76538086 C490.0453125 185.32491455 489.29765625 185.88444824 488.52734375 186.4609375 C487.76292969 187.0391626 486.99851562 187.6173877 486.2109375 188.21313477 C480.40278692 192.5589966 474.44462656 196.5811336 468.2890625 200.4140625 C465.65532242 202.06056837 463.08710785 203.7655818 460.52734375 205.5234375 C456.54821662 208.19587539 452.41282141 210.49442162 448.18359375 212.74609375 C442.60179927 215.73529158 437.07933912 218.82255615 431.609375 222.01171875 C430.08203125 222.890625 428.5546875 223.76953125 427.02734375 224.6484375 C426.25970703 225.10283203 425.49207031 225.55722656 424.70117188 226.02539062 C420.41353249 228.468647 417.29474503 230.11918219 412.21484375 229.3359375 C408.83984375 227.4609375 408.83984375 227.4609375 406.21484375 225.3359375 C406.21484375 224.6759375 406.21484375 224.0159375 406.21484375 223.3359375 C405.70695312 223.24183594 405.1990625 223.14773438 404.67578125 223.05078125 C401.22114289 222.04729106 398.0690932 220.45902951 394.83984375 218.8984375 C381.31468071 212.36486771 368.29321991 211.17872191 353.83203125 215.87109375 C343.49872617 220.05574754 333.93901034 225.39221307 325.21484375 232.3359375 C324.55484375 232.3359375 323.89484375 232.3359375 323.21484375 232.3359375 C323.21484375 232.9959375 323.21484375 233.6559375 323.21484375 234.3359375 C322.51359375 234.8928125 321.81234375 235.4496875 321.08984375 236.0234375 C318.18496592 238.35996967 316.0059973 240.80847305 313.63671875 243.66015625 C311.93632134 245.66419606 310.07224871 247.47853254 308.21484375 249.3359375 C307.88484375 249.9959375 307.55484375 250.6559375 307.21484375 251.3359375 C306.55484375 251.3359375 305.89484375 251.3359375 305.21484375 251.3359375 C304.87453125 252.109375 304.87453125 252.109375 304.52734375 252.8984375 C302.73266757 256.23140755 300.7151936 259.48297421 298.21484375 262.3359375 C297.55484375 262.3359375 296.89484375 262.3359375 296.21484375 262.3359375 C295.55484375 263.9859375 294.89484375 265.6359375 294.21484375 267.3359375 C293.55484375 267.3359375 292.89484375 267.3359375 292.21484375 267.3359375 C291.87453125 268.7590625 291.87453125 268.7590625 291.52734375 270.2109375 C290.21484375 273.3359375 290.21484375 273.3359375 287.58984375 274.7109375 C286.80609375 274.9171875 286.02234375 275.1234375 285.21484375 275.3359375 C283.5060037 273.71253945 281.84037658 272.04274697 280.21484375 270.3359375 C280.21484375 269.6759375 280.21484375 269.0159375 280.21484375 268.3359375 C279.55484375 268.3359375 278.89484375 268.3359375 278.21484375 268.3359375 C275.21484375 263.95132212 275.21484375 263.95132212 275.21484375 261.3359375 C274.55484375 261.3359375 273.89484375 261.3359375 273.21484375 261.3359375 C271.48828125 259.4375 271.48828125 259.4375 269.58984375 256.9609375 C268.64238281 255.74277344 268.64238281 255.74277344 267.67578125 254.5 C266.21484375 252.3359375 266.21484375 252.3359375 266.21484375 250.3359375 C265.22484375 250.0059375 264.23484375 249.6759375 263.21484375 249.3359375 C261.609375 247.77734375 261.609375 247.77734375 260.02734375 245.8984375 C259.49753906 245.28097656 258.96773438 244.66351563 258.421875 244.02734375 C257.21484375 242.3359375 257.21484375 242.3359375 257.21484375 240.3359375 C255.89484375 239.6759375 254.57484375 239.0159375 253.21484375 238.3359375 C253.21484375 237.6759375 253.21484375 237.0159375 253.21484375 236.3359375 C252.57546875 236.0678125 251.93609375 235.7996875 251.27734375 235.5234375 C249.21484375 234.3359375 249.21484375 234.3359375 248.21484375 231.3359375 C246.89399915 230.95612382 245.55749579 230.62949225 244.21484375 230.3359375 C242.89091736 229.5105608 241.60137062 228.62885783 240.33984375 227.7109375 C225.25893429 217.4262517 208.62678859 210.92795416 190.21484375 213.3359375 C185.86561936 214.47887321 182.15850304 216.19845279 178.21484375 218.3359375 C177.07789063 218.9134375 175.9409375 219.4909375 174.76953125 220.0859375 C168.4226565 223.25980048 168.4226565 223.25980048 162.8984375 227.61328125 C159.48458091 229.80470884 157.65260098 229.71566111 153.7265625 229.06591797 C148.81054759 227.63717724 144.58135701 225.01650305 140.21484375 222.3984375 C139.21243652 221.81376709 138.2100293 221.22909668 137.17724609 220.62670898 C135.14506957 219.43897872 133.116847 218.24445568 131.09277344 217.04296875 C128.48918641 215.49866263 125.87527632 213.97479212 123.25390625 212.4609375 C116.07999425 208.30656 109.04632398 204.03717121 102.21484375 199.3359375 C100.15400087 197.95845505 98.09139523 196.58360743 96.02734375 195.2109375 C94.08984375 193.91927083 92.15234375 192.62760417 90.21484375 191.3359375 C89.10496094 190.63726562 87.99507813 189.93859375 86.8515625 189.21875 C85.98144531 188.59742188 85.11132812 187.97609375 84.21484375 187.3359375 C84.21484375 186.6759375 84.21484375 186.0159375 84.21484375 185.3359375 C83.65796875 185.2740625 83.10109375 185.2121875 82.52734375 185.1484375 C79.22541509 183.9883004 77.58576384 181.88033955 75.21484375 179.3359375 C74.38984375 178.5109375 73.56484375 177.6859375 72.71484375 176.8359375 C71.88984375 176.0109375 71.06484375 175.1859375 70.21484375 174.3359375 C69.28671875 173.4490625 68.35859375 172.5621875 67.40234375 171.6484375 C65.21484375 169.3359375 65.21484375 169.3359375 65.21484375 167.3359375 C64.22484375 167.0059375 63.23484375 166.6759375 62.21484375 166.3359375 C61.02734375 163.7734375 61.02734375 163.7734375 60.21484375 161.3359375 C59.55484375 161.3359375 58.89484375 161.3359375 58.21484375 161.3359375 C57.55484375 159.6859375 56.89484375 158.0359375 56.21484375 156.3359375 C55.55484375 156.3359375 54.89484375 156.3359375 54.21484375 156.3359375 C51.21484375 151.95132212 51.21484375 151.95132212 51.21484375 149.3359375 C50.55484375 149.3359375 49.89484375 149.3359375 49.21484375 149.3359375 C48.55484375 147.0259375 47.89484375 144.7159375 47.21484375 142.3359375 C46.55484375 142.3359375 45.89484375 142.3359375 45.21484375 142.3359375 C41.91109261 135.86545716 38.7856071 129.3238138 35.73657227 122.73071289 C34.24919153 119.52208652 32.72955941 116.34432128 31.08984375 113.2109375 C28.81597697 108.7510357 27.13609126 104.0589928 25.375 99.37890625 C24.49886666 97.08089994 23.58938507 94.83098056 22.58984375 92.5859375 C19.65266795 85.64352196 17.73787002 78.5673027 15.96875 71.25 C15.30383497 68.67991392 14.5322259 66.21351687 13.65234375 63.7109375 C12.26495661 59.72942546 11.45033223 55.74920208 10.6796875 51.609375 C10.09710503 48.76010614 9.15143976 46.08718828 8.21484375 43.3359375 C7.73443151 41.22050882 7.29262801 39.10134273 6.875 36.97265625 C6.09519663 33.858057 5.07228174 30.8615469 4.04174805 27.82202148 C2.63208888 23.58388765 1.36580175 19.30334686 0.08984375 15.0234375 C-0.17441406 14.14365234 -0.43867188 13.26386719 -0.7109375 12.35742188 C-2.15189154 7.54083183 -2.15189154 7.54083183 -2.78515625 5.3359375 C-3.10395752 4.23922729 -3.10395752 4.23922729 -3.42919922 3.12036133 C-3.54666504 2.53150146 -3.66413086 1.9426416 -3.78515625 1.3359375 C-2.78515625 0.3359375 -2.78515625 0.3359375 0 0 Z " fill="#FBFBFA" transform="translate(16.78515625,90.6640625)"/>
<path d="M0 0 C-1.50608903 5.03170653 -3.16255435 9.43484314 -5.90625 13.9453125 C-7.87009842 17.63454203 -9.17838239 21.59784565 -10.63671875 25.5078125 C-12.44711092 30.14532139 -14.53727405 34.6274914 -16.66796875 39.125 C-19.79649209 45.30431637 -19.79649209 45.30431637 -20 52 C-18.23368749 54.31676249 -16.14923184 56.22947234 -14 58.1875 C-11.95588935 60.09119314 -9.96913224 62.01621648 -8 64 C-8 64.66 -8 65.32 -8 66 C-8.7734375 65.86722656 -9.546875 65.73445313 -10.34375 65.59765625 C-16.21975787 64.60135293 -22.07932027 63.68315535 -28 63 C-33.13142022 70.24813106 -38.09509851 77.59713836 -43 85 C-43.75925781 86.00546875 -44.51851562 87.0109375 -45.30078125 88.046875 C-47.21056409 90.78714985 -47.21056409 90.78714985 -46.97265625 93.45703125 C-45.72741622 96.71265879 -44.15075176 99.65210245 -42.4375 102.6875 C-39 108.79476861 -39 108.79476861 -39 111 C-41.16874252 110.49396008 -42.99967627 110.00016187 -45 109 C-45 108.34 -45 107.68 -45 107 C-45.721875 106.731875 -46.44375 106.46375 -47.1875 106.1875 C-50 105 -50 105 -52.5 103.3125 C-55.64924863 101.65914447 -56.62709168 102.04768544 -60 103 C-61.87364812 103.88185756 -63.71506796 104.83399614 -65.52734375 105.8359375 C-66.56697266 106.40570313 -67.60660156 106.97546875 -68.67773438 107.5625 C-69.75345703 108.160625 -70.82917969 108.75875 -71.9375 109.375 C-74.07118524 110.55025898 -76.20528718 111.72476181 -78.33984375 112.8984375 C-79.28206787 113.42099121 -80.22429199 113.94354492 -81.19506836 114.48193359 C-83.18561977 115.55924656 -85.22071977 116.55598757 -87.28051758 117.49414062 C-90.31784764 118.7883685 -90.31784764 118.7883685 -91.171875 122.1953125 C-91.45804688 124.14050781 -91.45804688 124.14050781 -91.75 126.125 C-91.85868408 126.81916016 -91.96736816 127.51332031 -92.0793457 128.22851562 C-92.42049168 130.48234501 -92.71574814 132.73832322 -93 135 C-93.10296387 135.79631836 -93.20592773 136.59263672 -93.31201172 137.41308594 C-93.93159125 142.26988473 -94.4877665 147.13076861 -95 152 C-95.66 152 -96.32 152 -97 152 C-98.00000951 148.19221303 -98.99684236 144.38361027 -99.99072266 140.57421875 C-100.49603307 138.64018311 -101.00386608 136.70680713 -101.51171875 134.7734375 C-101.82753906 133.56171875 -102.14335937 132.35 -102.46875 131.1015625 C-102.76201172 129.98088379 -103.05527344 128.86020508 -103.35742188 127.70556641 C-104 125 -104 125 -104 123 C-118.19 123 -132.38 123 -147 123 C-147.66 125.31 -148.32 127.62 -149 130 C-149.84127691 132.15927739 -150.7150323 134.30625987 -151.625 136.4375 C-152.07101562 137.48808594 -152.51703125 138.53867187 -152.9765625 139.62109375 C-153.31429687 140.40613281 -153.65203125 141.19117188 -154 142 C-154.33 142 -154.66 142 -155 142 C-155.91160286 134.64206267 -156.11459026 127.41017023 -156 120 C-168.33202548 119.30752067 -180.66528207 118.64271812 -193 118 C-191.53578452 111.86027827 -188.9702109 106.67425563 -186 101.125 C-185.51015625 100.20388428 -185.0203125 99.28276855 -184.515625 98.33374023 C-183.02378778 95.54832058 -181.51651006 92.7720557 -180 90 C-179.56558594 89.20577637 -179.13117188 88.41155273 -178.68359375 87.59326172 C-172.99119047 77.29920171 -166.61923412 67.96450514 -159 59 C-158.443125 58.32839844 -157.88625 57.65679687 -157.3125 56.96484375 C-147.5499848 46.2108231 -133.82127356 39.55375154 -120.69140625 33.97265625 C-119.91885498 33.63613037 -119.14630371 33.29960449 -118.3503418 32.95288086 C-116 32 -116 32 -113.48754883 31.25219727 C-110.94927086 30.41034993 -109.09772517 29.66632795 -107 28 C-105.38609831 24.36505581 -104.97603484 20.74484038 -104.5625 16.8125 C-104.29964714 14.79729473 -104.03046082 12.78290193 -103.75390625 10.76953125 C-103.65408447 9.87854736 -103.5542627 8.98756348 -103.45141602 8.06958008 C-103.30244873 7.38661865 -103.15348145 6.70365723 -103 6 C-102.34 5.67 -101.68 5.34 -101 5 C-99.99263372 7.93502595 -98.99539496 10.87339461 -98 13.8125 C-97.71382813 14.64587891 -97.42765625 15.47925781 -97.1328125 16.33789062 C-96.72675781 17.54155273 -96.72675781 17.54155273 -96.3125 18.76953125 C-96.06113281 19.50792236 -95.80976563 20.24631348 -95.55078125 21.00708008 C-95 23 -95 23 -95 26 C-94.38898438 25.84144531 -93.77796875 25.68289062 -93.1484375 25.51953125 C-88.16224547 24.24840342 -83.17634278 23.0277645 -78.1484375 21.93359375 C-61.22925172 18.24176513 -44.70431735 13.60909324 -28.28515625 8.10546875 C-27.53743454 7.8548468 -26.78971283 7.60422485 -26.01933289 7.3460083 C-22.29717234 6.09518792 -18.57916468 4.83333385 -14.8659668 3.55615234 C-14.17454086 3.32076248 -13.48311493 3.08537262 -12.77073669 2.84284973 C-10.87988038 2.19905753 -8.99113757 1.54906744 -7.10253906 0.89868164 C-4 0 -4 0 0 0 Z " fill="#12100F" transform="translate(532,147)"/>
<path d="M0 0 C5.14727278 0.94366668 9.65060269 2.18944094 14.4375 4.3125 C20.28970699 6.85368822 26.20113891 8.55120718 32.34960938 10.18798828 C36.7775223 11.36982556 41.10990302 12.66805763 45.4375 14.1875 C50.09382422 15.79781213 54.65660947 16.78785479 59.52734375 17.5078125 C62 18 62 18 64.1953125 18.921875 C68.33486107 20.51312208 72.59442785 21.27093628 76.9375 22.125 C77.81857422 22.30675781 78.69964844 22.48851562 79.60742188 22.67578125 C84.14064492 23.57903019 88.35128446 24.2297553 93 24 C93.36351562 22.82244141 93.36351562 22.82244141 93.734375 21.62109375 C95.64417474 15.6346061 97.62366379 10.30567119 101 5 C103.45624556 7.45624556 103.42226002 8.61242013 103.8515625 12.0078125 C103.98046875 12.99394531 104.109375 13.98007813 104.2421875 14.99609375 C104.36851562 16.02863281 104.49484375 17.06117188 104.625 18.125 C104.82609375 19.68541016 104.82609375 19.68541016 105.03125 21.27734375 C105.36177197 23.85069334 105.6843456 26.42479146 106 29 C106.77923828 29.14405273 107.55847656 29.28810547 108.36132812 29.43652344 C111.09712905 30.02074147 113.04756898 30.92299965 115.5 32.25 C120.53345322 34.86105669 125.69351763 36.85586876 131.01953125 38.7890625 C133.91306674 39.9646798 136.43974757 41.21113601 139 43 C139 43.66 139 44.32 139 45 C139.72832031 45.2578125 140.45664063 45.515625 141.20703125 45.78125 C161.2360567 54.52118838 171.84929371 76.85406677 181.734375 94.91015625 C183.98269163 99.00235525 186.36449307 103.00031016 188.84375 106.95703125 C190.76149217 110.34547434 192 113.07812092 192 117 C191.41508789 117.05534912 190.83017578 117.11069824 190.22753906 117.16772461 C187.56804892 117.42117265 184.90903168 117.67928825 182.25 117.9375 C181.32960937 118.02451172 180.40921875 118.11152344 179.4609375 118.20117188 C178.57148438 118.28818359 177.68203125 118.37519531 176.765625 118.46484375 C175.94868164 118.543396 175.13173828 118.62194824 174.29003906 118.70288086 C172.01605883 118.95242377 172.01605883 118.95242377 169.90429688 119.52734375 C165.18921968 120.69765009 159.79352603 120.04793526 155 120 C155 127.26 155 134.52 155 142 C154.34 142 153.68 142 153 142 C152.66226563 141.08476562 152.32453125 140.16953125 151.9765625 139.2265625 C151.53054687 138.03804687 151.08453125 136.84953125 150.625 135.625 C150.18414062 134.44164062 149.74328125 133.25828125 149.2890625 132.0390625 C148.2049658 128.95506554 148.2049658 128.95506554 146 127 C146 125.68 146 124.36 146 123 C132.14 123 118.28 123 104 123 C103.01 126.63 102.02 130.26 101 134 C100.12000545 136.9027426 99.23141318 139.79750417 98.3125 142.6875 C98.08755859 143.40099609 97.86261719 144.11449219 97.63085938 144.84960938 C97.08913088 146.56700398 96.54485625 148.28359514 96 150 C93.3065015 147.3065015 93.72163859 145.7976624 93.59765625 142.03125 C93.29983572 129.13725709 93.29983572 129.13725709 88.14794922 117.81396484 C83.66124644 114.4788656 78.61680498 112.62456888 73.35107422 110.85742188 C69.94591653 109.61558244 67.13087446 107.86424194 64.0625 105.9375 C59.80717394 103.16349149 59.80717394 103.16349149 55 102 C52.02030397 103.3456292 52.02030397 103.3456292 49 105.3125 C42.32884097 109.42360175 42.32884097 109.42360175 39 111 C39.76453001 105.66789326 42.24089151 101.59709921 44.8203125 96.9375 C46.15452857 93.61521363 46.17678462 92.33331085 45 89 C43.89430259 86.91965769 43.89430259 86.91965769 42.4375 84.9375 C41.90382812 84.16921875 41.37015625 83.4009375 40.8203125 82.609375 C40.21960938 81.74828125 39.61890625 80.8871875 39 80 C37.6005742 77.89822088 36.2048343 75.79398362 34.8125 73.6875 C33.02217692 70.98612494 31.25389603 68.3257857 29.26171875 65.76953125 C28 64 28 64 28 62 C26.60587891 62.433125 26.60587891 62.433125 25.18359375 62.875 C23.94738281 63.24625 22.71117187 63.6175 21.4375 64 C19.61025391 64.556875 19.61025391 64.556875 17.74609375 65.125 C14.02076651 65.99514943 10.80934051 66.15688404 7 66 C8.97777387 61.038417 13.08173984 58.1116783 16.98046875 54.6328125 C19.29379556 52.17691979 19.29379556 52.17691979 18.97265625 49.15625 C17.84946447 45.51151522 16.62904396 41.92935239 15.25 38.375 C14.98413086 37.68003418 14.71826172 36.98506836 14.44433594 36.26904297 C10.97277564 25.35204378 10.97277564 25.35204378 5 16 C4.2544255 14.25282353 3.57441224 12.47715073 2.9375 10.6875 C2.59589844 9.74261719 2.25429687 8.79773438 1.90234375 7.82421875 C1.07098964 5.22218835 0.4747933 2.68723217 0 0 Z " fill="#11100F" transform="translate(74,147)"/>
<path d="M0 0 C-0.40138994 2.32806168 -0.67992277 3.68263529 -2.3828125 5.37109375 C-4.19771792 7.19915066 -5.28767484 9.01239643 -6.5625 11.25 C-10.74410646 18.36497219 -15.37226868 25.17085613 -20 32 C-20.64453125 32.95777344 -21.2890625 33.91554687 -21.953125 34.90234375 C-23.59426124 37.30121181 -25.28364348 39.65459049 -27 42 C-27.46921875 42.69480469 -27.9384375 43.38960937 -28.421875 44.10546875 C-32.02634183 48.90832791 -36.23100172 51.5185154 -41.5 54.1875 C-42.109646 54.4963916 -42.71929199 54.8052832 -43.34741211 55.12353516 C-45.53777026 56.16493003 -47.75022366 57.09322646 -50 58 C-51.08877441 58.44118164 -52.17754883 58.88236328 -53.29931641 59.33691406 C-62.88251874 62.89765099 -71.21822405 63.66106077 -81.375 63.375 C-82.82801636 63.35294221 -84.28106258 63.33277431 -85.73413086 63.31445312 C-95.50055172 63.16704788 -105.26611229 62.83221025 -115 62 C-113.06349042 48.98411591 -96.54938586 34.91046397 -86.66015625 27.3671875 C-77.62053442 20.93020246 -67.45809664 17.44769987 -57 14 C-55.6442782 13.5332865 -54.28879552 13.06587763 -52.93359375 12.59765625 C-44.83904657 9.87138189 -36.70753192 8.03827202 -28.31884766 6.45507812 C-19.05018321 4.6882446 -9.29310544 0 0 0 Z " fill="#F8F8F8" transform="translate(490,182)"/>
<path d="M0 0 C1.73030291 0.28484846 3.45920714 0.57819938 5.1875 0.875 C6.15042969 1.03742188 7.11335938 1.19984375 8.10546875 1.3671875 C10.92450378 1.98349475 13.33012645 2.92383558 16 4 C18.13737289 4.53501199 20.28417469 5.03331937 22.4375 5.5 C25.71085585 6.21109501 28.8622038 6.95377274 32.0390625 8.01953125 C35.00318768 9.00105555 37.87068651 9.61126392 40.9375 10.1875 C47.63359379 11.59945588 54.18585223 13.37988419 60.75 15.3125 C61.70769287 15.58408936 62.66538574 15.85567871 63.65209961 16.13549805 C70.44682616 18.18135442 76.07780704 21.12060918 82 25 C82.81178711 25.51433594 83.62357422 26.02867187 84.45996094 26.55859375 C97.23094433 34.69239102 107.14140481 46.08764584 115 59 C115 59.66 115 60.32 115 61 C104.49568069 62.79615842 94.01750496 63.23953642 83.38131714 63.29956055 C81.93492758 63.30809156 80.4885577 63.32164755 79.04226685 63.34057617 C65.99274087 63.49290894 54.85424075 61.63022224 43.25 55.375 C42.01588379 54.71359009 42.01588379 54.71359009 40.75683594 54.03881836 C34.5615174 50.58411766 29.96187131 46.96242019 26 41 C25.33484375 40.030625 24.6696875 39.06125 23.984375 38.0625 C19 30.52706693 19 30.52706693 19 28 C18.34 28 17.68 28 17 28 C15.85839844 26.50634766 15.85839844 26.50634766 14.609375 24.4140625 C14.14958252 23.65206543 13.68979004 22.89006836 13.21606445 22.10498047 C12.73226318 21.28658691 12.24846191 20.46819336 11.75 19.625 C11.25781982 18.80531738 10.76563965 17.98563477 10.25854492 17.14111328 C8.83283396 14.76438002 7.41608738 12.38247484 6 10 C4.77149684 7.95793402 3.54250604 5.9161611 2.3125 3.875 C1.54083955 2.5838273 0.76959712 1.2924036 0 0 Z " fill="#F9F9F9" transform="translate(115,182)"/>
<path d="M0 0 C-0.84270669 10.6225396 -3.17683296 20.10098343 -6.75390625 30.109375 C-8.62745749 35.4847995 -9.93972862 40.8955082 -11.1796875 46.44921875 C-12.06927319 50.29985396 -13.04521601 54.11901977 -14.0625 57.9375 C-14.54396484 59.74541016 -14.54396484 59.74541016 -15.03515625 61.58984375 C-15.93340552 64.7646276 -16.94013267 67.8761805 -18 71 C-18.46604518 72.51848785 -18.92465712 74.03928145 -19.375 75.5625 C-21.20848613 81.72113288 -23.10420313 87.86031268 -25 94 C-25.66 94 -26.32 94 -27 94 C-27.16822266 95.53333984 -27.16822266 95.53333984 -27.33984375 97.09765625 C-27.98798273 100.92896301 -29.00089854 103.89304763 -30.5625 107.4375 C-30.82281006 108.02950195 -31.08312012 108.62150391 -31.35131836 109.23144531 C-34.36724794 115.99064984 -37.71311807 122.58949915 -41.07470703 129.18164062 C-42.39727674 131.78071692 -43.69877856 134.39018476 -45 137 C-45.66666667 138.33333333 -46.33333333 139.66666667 -47 141 C-47.66 141 -48.32 141 -49 141 C-49.226875 142.010625 -49.45375 143.02125 -49.6875 144.0625 C-50.93397876 148.4565618 -53.12184173 151.47425613 -56 155 C-56.66 155 -57.32 155 -58 155 C-58.23589844 155.71800781 -58.47179687 156.43601563 -58.71484375 157.17578125 C-60.21213329 160.46617742 -62.08780526 162.5618608 -64.5625 165.1875 C-67.64185798 168.34188937 -67.64185798 168.34188937 -70 172 C-70.66 172 -71.32 172 -72 172 C-72.268125 172.639375 -72.53625 173.27875 -72.8125 173.9375 C-74 176 -74 176 -77 177 C-77.33 177.99 -77.66 178.98 -78 180 C-79.4519043 181.39111328 -79.4519043 181.39111328 -81.32421875 182.8203125 C-82.01644531 183.35132568 -82.70867187 183.88233887 -83.421875 184.42944336 C-84.16953125 184.98897705 -84.9171875 185.54851074 -85.6875 186.125 C-86.45191406 186.7032251 -87.21632813 187.2814502 -88.00390625 187.87719727 C-93.81205683 192.2230591 -99.77021719 196.2451961 -105.92578125 200.078125 C-108.55952133 201.72463087 -111.1277359 203.4296443 -113.6875 205.1875 C-117.66662713 207.85993789 -121.80202234 210.15848412 -126.03125 212.41015625 C-131.61304448 215.39935408 -137.13550463 218.48661865 -142.60546875 221.67578125 C-144.1328125 222.5546875 -145.66015625 223.43359375 -147.1875 224.3125 C-147.95513672 224.76689453 -148.72277344 225.22128906 -149.51367188 225.68945312 C-153.80131126 228.1327095 -156.92009872 229.78324469 -162 229 C-165.375 227.125 -165.375 227.125 -168 225 C-168 224.34 -168 223.68 -168 223 C-167.29875 223.309375 -166.5975 223.61875 -165.875 223.9375 C-161.09952889 225.70234802 -158.30657846 226.49848809 -153.40625 224.62890625 C-152.09504763 223.95762564 -150.7932726 223.26770585 -149.5 222.5625 C-148.44462036 222.00888794 -148.44462036 222.00888794 -147.36791992 221.4440918 C-145.23419057 220.31537467 -143.11566086 219.16217339 -141 218 C-139.87207031 217.38640625 -138.74414062 216.7728125 -137.58203125 216.140625 C-122.26196031 207.57456383 -107.23120429 198.27703075 -93 188 C-91.98808594 187.28585937 -90.97617187 186.57171875 -89.93359375 185.8359375 C-82.57773283 180.51867405 -76.16335667 174.65904393 -70 168 C-68.89591797 166.80890625 -68.89591797 166.80890625 -67.76953125 165.59375 C-52.17067806 147.63660024 -39.89977528 124.34893689 -32 102 C-31.47156078 100.74435086 -30.93194001 99.49327012 -30.375 98.25 C-29.00376188 95.0088917 -27.8953747 91.76143357 -26.84375 88.40625 C-26 86 -26 86 -24.6171875 83.02734375 C-22.25624133 77.59367416 -21.04636645 71.79545019 -19.625 66.0625 C-17.74854804 58.64717099 -15.86974328 51.27401331 -13.5 44 C-10.76666015 35.60086298 -8.63749757 27.05561386 -6.49804688 18.48828125 C-4.98269468 12.48957672 -3.32044008 6.73781548 -1 1 C-2.2375 1.45375 -3.475 1.9075 -4.75 2.375 C-5.44609375 2.63023438 -6.1421875 2.88546875 -6.859375 3.1484375 C-8.97982406 3.94070299 -8.97982406 3.94070299 -10.7890625 4.984375 C-13.94415859 6.43371243 -17.25664935 7.10186497 -20.625 7.875 C-31.07739413 9.90113633 -31.07739413 9.90113633 -40 15 C-42.33297433 15.04092937 -44.66705225 15.04241723 -47 15 C-44.24982649 13.16655099 -42.34954283 12.35621622 -39.25 11.375 C-32.76287713 9.26868726 -26.31736638 7.05189443 -19.875 4.8125 C-18.8427832 4.45526855 -17.81056641 4.09803711 -16.74707031 3.72998047 C-15.77608398 3.39240723 -14.80509766 3.05483398 -13.8046875 2.70703125 C-12.92796387 2.4025708 -12.05124023 2.09811035 -11.14794922 1.78442383 C-7.108301 0.30915789 -4.42411392 -0.08192804 0 0 Z " fill="#292828" transform="translate(591,91)"/>
<path d="M0 0 C0.99 0.99 0.99 0.99 2 2 C0.865625 1.67 -0.26875 1.34 -1.4375 1 C-21.07151588 -3.26021099 -38.31560109 2.84916317 -55 13 C-57.76845016 14.90646428 -60.36894351 16.90589382 -63 19 C-63.66 19 -64.32 19 -65 19 C-65 19.66 -65 20.32 -65 21 C-65.70125 21.556875 -66.4025 22.11375 -67.125 22.6875 C-70.02987783 25.02403217 -72.20884645 27.47253555 -74.578125 30.32421875 C-76.27852241 32.32825856 -78.14259504 34.14259504 -80 36 C-80.495 36.99 -80.495 36.99 -81 38 C-81.66 38 -82.32 38 -83 38 C-83.226875 38.515625 -83.45375 39.03125 -83.6875 39.5625 C-85.48217618 42.89547005 -87.49965015 46.14703671 -90 49 C-90.66 49 -91.32 49 -92 49 C-92.66 50.65 -93.32 52.3 -94 54 C-94.66 54 -95.32 54 -96 54 C-96.226875 54.94875 -96.45375 55.8975 -96.6875 56.875 C-98 60 -98 60 -100.625 61.375 C-101.800625 61.684375 -101.800625 61.684375 -103 62 C-104.70884005 60.37660195 -106.37446717 58.70680947 -108 57 C-108 56.34 -108 55.68 -108 55 C-108.66 55 -109.32 55 -110 55 C-113 50.61538462 -113 50.61538462 -113 48 C-113.66 48 -114.32 48 -115 48 C-116.7265625 46.1015625 -116.7265625 46.1015625 -118.625 43.625 C-119.57246094 42.40683594 -119.57246094 42.40683594 -120.5390625 41.1640625 C-122 39 -122 39 -122 37 C-122.99 36.67 -123.98 36.34 -125 36 C-126.60546875 34.44140625 -126.60546875 34.44140625 -128.1875 32.5625 C-128.71730469 31.94503906 -129.24710937 31.32757813 -129.79296875 30.69140625 C-131 29 -131 29 -131 27 C-132.32 26.34 -133.64 25.68 -135 25 C-135 24.34 -135 23.68 -135 23 C-130.59270806 24.64339699 -127.90407403 27.98651555 -124.8125 31.375 C-124.23878662 31.99842285 -123.66507324 32.6218457 -123.07397461 33.26416016 C-117.96513966 38.89238023 -113.42055371 44.81478977 -109 51 C-107.85981837 52.58740805 -106.71468607 54.17128351 -105.5625 55.75 C-105.11003906 56.38421875 -104.65757812 57.0184375 -104.19140625 57.671875 C-103.79824219 58.11015625 -103.40507812 58.5484375 -103 59 C-102.34 59 -101.68 59 -101 59 C-99.49041392 57.12317409 -99.49041392 57.12317409 -97.9375 54.6875 C-91.99775791 45.9684997 -85.17074078 38.0530109 -78.04296875 30.2890625 C-76.65168915 28.7301909 -75.31527343 27.12099585 -74.03125 25.47265625 C-67.45109286 17.46258035 -58.49800805 12.27163764 -49.57543945 7.2746582 C-48.86734131 6.87593506 -48.15924316 6.47721191 -47.4296875 6.06640625 C-46.79272949 5.71521729 -46.15577148 5.36402832 -45.49951172 5.00219727 C-43.82458558 4.06177793 -43.82458558 4.06177793 -43 2 C-39.5 1.5 -39.5 1.5 -36 1 C-33.95801227 0.31676403 -31.98062096 -0.45617388 -29.9921875 -1.28125 C-20.77288988 -4.60742797 -8.79695744 -4.48069328 0 0 Z " fill="#31312F" transform="translate(405,304)"/>
<path d="M0 0 C2.37569172 2.37569172 2.63337852 3.8323849 3.4375 7.0625 C4.34504196 10.57409453 5.30242823 14.01407494 6.5 17.4375 C8.02370037 21.88956203 9.14149326 26.40770953 10.2578125 30.9765625 C12.10270305 38.492064 14.23515077 45.91410528 16.5 53.3125 C16.70157715 53.98249023 16.9031543 54.65248047 17.11083984 55.34277344 C18.38984108 59.46228746 20.0165446 63.17704968 22 67 C22.60301152 68.492198 23.18721802 69.99216903 23.75 71.5 C26.13319436 77.54825842 29.07623044 83.29429563 32.02929688 89.07763672 C33.03293722 91.06522828 34.01133248 93.06367147 34.984375 95.06640625 C44.51419271 114.61944254 57.00911652 130.38269631 72 146 C67.95136013 146 66.98442858 144.70680732 64 142 C58 135.64622642 58 135.64622642 58 133 C57.01 132.67 56.02 132.34 55 132 C53.8125 129.4375 53.8125 129.4375 53 127 C52.34 127 51.68 127 51 127 C50.34 125.35 49.68 123.7 49 122 C48.34 122 47.68 122 47 122 C44 117.61538462 44 117.61538462 44 115 C43.34 115 42.68 115 42 115 C41.34 112.69 40.68 110.38 40 108 C39.34 108 38.68 108 38 108 C34.69624886 101.52951966 31.57076335 94.9878763 28.52172852 88.39477539 C27.03434778 85.18614902 25.51471566 82.00838378 23.875 78.875 C21.60113322 74.4150982 19.92124751 69.7230553 18.16015625 65.04296875 C17.28402291 62.74496244 16.37454132 60.49504306 15.375 58.25 C12.4378242 51.30758446 10.52302627 44.2313652 8.75390625 36.9140625 C8.08899122 34.34397642 7.31738215 31.87757937 6.4375 29.375 C5.05012777 25.39353074 4.23326386 21.41455424 3.46875 17.2734375 C3.01770813 14.83637187 3.01770813 14.83637187 1.9375 11.9375 C0.68253729 8.00528352 0.3461787 4.09948459 0 0 Z " fill="#373735" transform="translate(24,125)"/>
<path d="M0 0 C7.0968584 0.60180185 13.69590612 2.0064957 20.5625 3.875 C21.68019775 4.17889648 22.79789551 4.48279297 23.94946289 4.79589844 C54.16809025 13.23016095 83.38124298 24.85466711 111.83642578 38.00195312 C113.87532161 38.94248643 115.91917188 39.87119431 117.96484375 40.796875 C124.87079393 43.94252191 131.6496118 47.2988278 138.375 50.8125 C139.11967529 51.19792969 139.86435059 51.58335937 140.6315918 51.98046875 C145.88060295 54.7612059 145.88060295 54.7612059 147 57 C143.28879445 55.92570366 139.92274983 54.51376325 136.4921875 52.765625 C130.86000924 49.92177089 125.1879398 47.16786258 119.5 44.4375 C118.53191406 43.96892578 117.56382812 43.50035156 116.56640625 43.01757812 C111.19783017 40.44138222 105.80642831 38.07543424 100.26025391 35.90942383 C97.07251628 34.62682255 94.02450245 33.13483128 90.9375 31.625 C81.33280997 27.03285864 71.30195228 23.71143663 61.1875 20.4375 C57.9238016 19.37432552 54.8302708 18.06682718 51.6875 16.6875 C37.99700481 10.89469835 23.25638634 7.45784483 8.94287109 3.53710938 C5.95610512 2.71141383 2.97808228 1.85644196 0 1 C0 0.67 0 0.34 0 0 Z " fill="#2E2E2D" transform="translate(153,133)"/>
<path d="M0 0 C4.69234829 0.56072086 8.8611735 1.48987567 13.3125 3.0625 C32.65139151 9.72778501 52.32006881 15.53041464 72.14453125 20.56640625 C73.19809814 20.83565918 74.25166504 21.10491211 75.3371582 21.38232422 C77.41081245 21.91022169 79.48613523 22.431617 81.56323242 22.94580078 C82.50142822 23.18411621 83.43962402 23.42243164 84.40625 23.66796875 C85.24478516 23.87703857 86.08332031 24.0861084 86.94726562 24.30151367 C89 25 89 25 91 27 C79.07783644 26.13293356 67.22572018 23.03440545 56 19 C49.07902549 16.57818218 42.0676707 14.57060389 35 12.625 C24.97135038 9.84260021 14.97259202 6.9766884 5 4 C5 3.34 5 2.68 5 2 C3.35 1.67 1.7 1.34 0 1 C0 0.67 0 0.34 0 0 Z " fill="#373635" transform="translate(61,106)"/>
<path d="M0 0 C5.02605537 -0.21136875 8.78362075 0.33732341 13.4921875 2.08203125 C15.29236328 2.73848633 15.29236328 2.73848633 17.12890625 3.40820312 C18.37775181 3.87590803 19.62644897 4.34400938 20.875 4.8125 C23.3304575 5.71558274 25.78618101 6.61794259 28.2421875 7.51953125 C29.9761377 8.16075928 29.9761377 8.16075928 31.74511719 8.81494141 C35.80540957 10.29323868 39.89083912 11.66430084 44 13 C44 13.33 44 13.66 44 14 C35.04999465 13.1712958 27.08378623 10.52934001 18.8046875 7.1171875 C13.26583427 4.91090334 7.62181538 2.98268965 2 1 C2.24234375 1.78648926 2.4846875 2.57297852 2.734375 3.38330078 C3.83155948 6.96128266 4.91588836 10.54303653 6 14.125 C6.3815625 15.3625 6.763125 16.6 7.15625 17.875 C7.5171875 19.07382813 7.878125 20.27265625 8.25 21.5078125 C8.58515625 22.60754395 8.9203125 23.70727539 9.265625 24.84033203 C10.00233688 28.01005448 10.13664929 30.75884967 10 34 C9.34 33.67 8.68 33.34 8 33 C7.26405797 30.4972012 6.63579742 28.04027121 6.0625 25.5 C3.7971907 15.41958341 3.7971907 15.41958341 -0.109375 5.90625 C-1.22196772 3.5249112 -0.86548214 2.42335 0 0 Z " fill="#252423" transform="translate(14,91)"/>
<path d="M0 0 C0 0.66 0 1.32 0 2 C-4.25000932 5.34575202 -8.6760877 7.99033682 -13.42578125 10.5546875 C-16.45195792 12.25375482 -19.37411051 14.09091354 -22.3125 15.9375 C-27.48460227 19.14818659 -32.72843285 21.97328891 -38.2109375 24.61328125 C-40.84797484 25.92441326 -43.34758386 27.36615793 -45.875 28.875 C-49.43493152 30.85701593 -51.8649121 31.82701758 -56 31 C-59.375 29.125 -59.375 29.125 -62 27 C-62 26.34 -62 25.68 -62 25 C-61.29875 25.309375 -60.5975 25.61875 -59.875 25.9375 C-55.09952889 27.70234802 -52.30657846 28.49848809 -47.40625 26.62890625 C-46.095046 25.95762882 -44.79326658 25.26771689 -43.5 24.5625 C-42.79786377 24.19415039 -42.09572754 23.82580078 -41.37231445 23.44628906 C-39.23719069 22.31673661 -37.11727265 21.16261178 -35 20 C-33.84886719 19.37480469 -32.69773437 18.74960937 -31.51171875 18.10546875 C-23.55191602 13.66257063 -15.86811403 8.81628112 -8.21948242 3.86035156 C-7.44064697 3.35987305 -6.66181152 2.85939453 -5.859375 2.34375 C-5.16295898 1.89193359 -4.46654297 1.44011719 -3.74902344 0.97460938 C-2 0 -2 0 0 0 Z " fill="#30302F" transform="translate(485,289)"/>
<path d="M0 0 C7.0971684 0.60182814 13.6953338 2.00779951 20.5625 3.875 C21.66352051 4.17237061 22.76454102 4.46974121 23.89892578 4.77612305 C33.50958368 7.44649108 42.94790079 10.56042738 52.375 13.8125 C53.4295488 14.17586456 53.4295488 14.17586456 54.50540161 14.54656982 C67.03933585 18.88267525 67.03933585 18.88267525 71 21 C71 21.66 71 22.32 71 23 C64.79638103 21.52970361 58.94973024 19.64158613 53.0625 17.1875 C38.8411207 11.29383931 23.76655689 7.59758993 8.94287109 3.53710938 C5.95610512 2.71141383 2.97808228 1.85644196 0 1 C0 0.67 0 0.34 0 0 Z " fill="#373635" transform="translate(153,133)"/>
<path d="M0 0 C-1.05574219 0.27880005 -1.05574219 0.27880005 -2.1328125 0.56323242 C-15.51415831 4.10618829 -28.8433089 7.68922058 -42 12 C-42.86238281 12.27457031 -43.72476562 12.54914063 -44.61328125 12.83203125 C-48.47461967 14.07913019 -52.23900018 15.47604747 -56 17 C-59.2747155 18.32110797 -62.55127636 19.61922873 -65.875 20.8125 C-66.57367188 21.06644531 -67.27234375 21.32039063 -67.9921875 21.58203125 C-70.31687181 22.06596359 -71.76625094 21.73623568 -74 21 C-59.49700248 14.75786737 -44.85675496 9.95700654 -29.66601562 5.74072266 C-27.05160264 5.01433722 -24.43962157 4.27976244 -21.828125 3.54296875 C-20.21884268 3.09081582 -18.60947184 2.63897783 -17 2.1875 C-16.26491211 1.98060547 -15.52982422 1.77371094 -14.77246094 1.56054688 C-4.57515333 -1.27654948 -4.57515333 -1.27654948 0 0 Z " fill="#2D2D2B" transform="translate(456,133)"/>
<path d="M0 0 C4.40729194 1.64339699 7.09592597 4.98651555 10.1875 8.375 C11.04807007 9.31013428 11.04807007 9.31013428 11.92602539 10.26416016 C17.03486034 15.89238023 21.57944629 21.81478977 26 28 C27.14018163 29.58740805 28.28531393 31.17128351 29.4375 32.75 C29.88996094 33.38421875 30.34242188 34.0184375 30.80859375 34.671875 C31.20175781 35.11015625 31.59492188 35.5484375 32 36 C32.66 36 33.32 36 34 36 C35.63676257 34.0399719 35.63676257 34.0399719 37 32 C37.99 32.495 37.99 32.495 39 33 C36.62962963 37.62222222 36.62962963 37.62222222 34.125 39.125 C32 39 32 39 29.25 36.6875 C27 34 27 34 27 32 C26.34 32 25.68 32 25 32 C22 27.61538462 22 27.61538462 22 25 C21.34 25 20.68 25 20 25 C18.2734375 23.1015625 18.2734375 23.1015625 16.375 20.625 C15.74335938 19.81289063 15.11171875 19.00078125 14.4609375 18.1640625 C13 16 13 16 13 14 C12.01 13.67 11.02 13.34 10 13 C8.39453125 11.44140625 8.39453125 11.44140625 6.8125 9.5625 C6.01779297 8.63630859 6.01779297 8.63630859 5.20703125 7.69140625 C4 6 4 6 4 4 C2.68 3.34 1.36 2.68 0 2 C0 1.34 0 0.68 0 0 Z " fill="#262525" transform="translate(270,327)"/>
<path d="M0 0 C0.99 0 1.98 0 3 0 C3.49306641 0.98226562 3.49306641 0.98226562 3.99609375 1.984375 C10.47921503 14.42353452 19.36085322 24.79624786 28.52490234 35.30322266 C31.03290988 38.18813698 33.51590232 41.09449778 36 44 C32.20752477 42.24407595 29.89421996 40.03540142 27 37 C26.071875 36.113125 25.14375 35.22625 24.1875 34.3125 C22 32 22 32 22 30 C21.01 29.67 20.02 29.34 19 29 C17.8125 26.4375 17.8125 26.4375 17 24 C16.34 24 15.68 24 15 24 C14.34 22.35 13.68 20.7 13 19 C12.34 19 11.68 19 11 19 C8 14.61538462 8 14.61538462 8 12 C7.34 12 6.68 12 6 12 C5.34 9.69 4.68 7.38 4 5 C3.34 5 2.68 5 2 5 C1.34 3.35 0.68 1.7 0 0 Z " fill="#333332" transform="translate(60,228)"/>
<path d="M0 0 C0.66 0.66 1.32 1.32 2 2 C0.2984375 1.505 0.2984375 1.505 -1.4375 1 C-13.90774391 -1.70580764 -26.13546369 -0.50345967 -38 4 C-38.33 4.33 -38.66 4.66 -39 5 C-40.66617115 5.04063832 -42.33388095 5.042721 -44 5 C-43.67 4.01 -43.34 3.02 -43 2 C-42.01 1.896875 -41.02 1.79375 -40 1.6875 C-36.42469661 1.18811552 -33.31680308 0.09825854 -29.9921875 -1.28125 C-20.77288988 -4.60742797 -8.79695744 -4.48069328 0 0 Z " fill="#565655" transform="translate(405,304)"/>
<path d="M0 0 C-7.27898415 6.11781287 -18.22548465 7.36962509 -27.31054688 9.55908203 C-31.037218 10.46711726 -34.64390344 11.50766243 -38.25 12.8125 C-41.8881482 13.96458026 -42.63326819 14.09493269 -46 13 C-43.953125 12.31770833 -41.90625 11.63541667 -39.859375 10.953125 C-39.22195374 10.74065125 -38.58453247 10.52817749 -37.92779541 10.30926514 C-32.82327271 8.60775757 -32.82327271 8.60775757 -27.71875 6.90625 C-27.05959595 6.68634399 -26.40044189 6.46643799 -25.72131348 6.23986816 C-24.39746808 5.79896592 -23.07316707 5.35942933 -21.74841309 4.92126465 C-18.64622058 3.89350771 -15.55673062 2.8419178 -12.47851562 1.74414062 C-11.41826172 1.36966797 -10.35800781 0.99519531 -9.265625 0.609375 C-8.34040039 0.27389648 -7.41517578 -0.06158203 -6.46191406 -0.40722656 C-3.85425494 -1.03509213 -2.49455787 -0.8966412 0 0 Z " fill="#555553" transform="translate(544,107)"/>
<path d="M0 0 C2.37569172 2.37569172 2.63337852 3.8323849 3.4375 7.0625 C4.34504196 10.57409453 5.30242823 14.01407494 6.5 17.4375 C9.11122462 25.09251114 11.08625861 32.95907574 12 41 C11.505 39.515 11.505 39.515 11 38 C10.34 38 9.68 38 9 38 C6.76895596 31.09026167 4.73213817 24.28055261 3.43359375 17.1328125 C3.01126436 14.81326831 3.01126436 14.81326831 1.9375 11.9375 C0.68253729 8.00528352 0.3461787 4.09948459 0 0 Z " fill="#504F4E" transform="translate(24,125)"/>
<path d="M0 0 C1.30420898 0.30635376 1.30420898 0.30635376 2.63476562 0.61889648 C7.26891699 1.82052794 10.39508066 2.80581093 13.4375 6.75 C9.28853512 6.07277684 5.66398753 4.69884172 1.75 3.1875 C-4.19643815 1.07214856 -9.69351316 0.26115496 -16 0.25 C-16.7324292 0.24411865 -17.4648584 0.2382373 -18.21948242 0.23217773 C-23.56606895 0.35411849 -27.61505831 1.76044056 -32.5625 3.75 C-33.5525 3.75 -34.5425 3.75 -35.5625 3.75 C-35.5625 3.09 -35.5625 2.43 -35.5625 1.75 C-23.01855395 -3.31278183 -12.97540348 -3.0957671 0 0 Z " fill="#414140" transform="translate(231.5625,303.25)"/>
<path d="M0 0 C-9.58719136 5.78703704 -9.58719136 5.78703704 -14 8.25 C-16.99787922 9.82821702 -16.99787922 9.82821702 -19 12 C-26.78239228 12 -31.65603877 9.33084618 -38 5 C-37.01 4.67 -36.02 4.34 -35 4 C-33.34461586 4.95502931 -31.68903046 5.91651735 -30.109375 6.9921875 C-26.97546213 8.48950142 -24.47823505 8.8791771 -21 9 C-18.36619411 7.83294159 -16.25312911 6.73197725 -13.875 5.1875 C-3.06334623 -1.53167311 -3.06334623 -1.53167311 0 0 Z " fill="#2E2E2C" transform="translate(196,308)"/>
<path d="M0 0 C0.66 0.33 1.32 0.66 2 1 C-1.35513819 8.82865579 -5.15956987 16.40587925 -8.99511719 24.00634766 C-10.50428342 27.00048067 -12.00192596 30.00030197 -13.5 33 C-14.33333333 34.66666667 -15.16666667 36.33333333 -16 38 C-16.66 37.67 -17.32 37.34 -18 37 C-15.55700393 30.16925442 -12.41216646 23.90328411 -8.93701172 17.55957031 C-6.52180226 13.10613754 -4.50123811 8.63195865 -2.7890625 3.85546875 C-2 2 -2 2 0 0 Z " fill="#222321" transform="translate(560,194)"/>
<path d="M0 0 C-1 2 -1 2 -2.69897461 2.62255859 C-3.42608643 2.79609863 -4.15319824 2.96963867 -4.90234375 3.1484375 C-5.70623535 3.34727539 -6.51012695 3.54611328 -7.33837891 3.75097656 C-8.62494385 4.05986816 -8.62494385 4.05986816 -9.9375 4.375 C-21.26746208 6.56207366 -21.26746208 6.56207366 -31 12 C-33.33297433 12.04092937 -35.66705225 12.04241723 -38 12 C-35.19009612 10.12673075 -33.11535662 9.26905951 -29.9375 8.25 C-26.07307588 7.002802 -22.21913891 5.73705949 -18.3828125 4.40625 C-17.58625244 4.13264648 -16.78969238 3.85904297 -15.96899414 3.57714844 C-14.38816366 3.03379309 -12.80914798 2.48512317 -11.23217773 1.93066406 C-7.37026942 0.61557575 -4.14189599 -0.36231297 0 0 Z " fill="#4B4B49" transform="translate(582,94)"/>
<path d="M0 0 C12.11109005 1.18057685 23.39888821 4.46951565 35 8 C31.69359685 9.08419155 29.48243453 8.89075853 26.11328125 8.109375 C25.17419922 7.89410156 24.23511719 7.67882812 23.26757812 7.45703125 C22.29240234 7.22371094 21.31722656 6.99039063 20.3125 6.75 C18.87874023 6.42322266 18.87874023 6.42322266 17.41601562 6.08984375 C11.48751607 4.70773956 5.73445556 3.04248207 0 1 C0 0.67 0 0.34 0 0 Z " fill="#4C4C4B" transform="translate(117,124)"/>
<path d="M0 0 C2.68285685 4.02428527 3.74833825 8.20496461 5.125 12.8125 C5.40214844 13.70259766 5.67929687 14.59269531 5.96484375 15.50976562 C7.35445379 20.12696745 8.37097053 24.12093107 8 29 C7.34 28.67 6.68 28.34 6 28 C5.24430626 25.41411048 4.59123948 22.87362521 4 20.25 C2.73068892 14.64906646 2.73068892 14.64906646 0.8828125 9.22265625 C-0.34911517 6.12103305 -0.12937858 3.29915374 0 0 Z " fill="#414141" transform="translate(16,96)"/>
<path d="M0 0 C2.93291764 1.31426417 4.91347663 2.69313874 7.09375 5.046875 C7.64933594 5.645 8.20492188 6.243125 8.77734375 6.859375 C9.34582031 7.48328125 9.91429687 8.1071875 10.5 8.75 C11.06847656 9.3584375 11.63695312 9.966875 12.22265625 10.59375 C15.54807837 14.2046492 18.39578579 17.83836356 21 22 C17.82461668 21.65978036 16.97723135 20.97533396 14.75 18.5625 C13 16 13 16 13 14 C12.01 13.67 11.02 13.34 10 13 C8.39453125 11.44140625 8.39453125 11.44140625 6.8125 9.5625 C6.01779297 8.63630859 6.01779297 8.63630859 5.20703125 7.69140625 C4 6 4 6 4 4 C2.68 3.34 1.36 2.68 0 2 C0 1.34 0 0.68 0 0 Z " fill="#2A2927" transform="translate(270,327)"/>
<path d="M0 0 C2.475 0.495 2.475 0.495 5 1 C5 1.66 5 2.32 5 3 C6.27230469 3.38285156 6.27230469 3.38285156 7.5703125 3.7734375 C11.23752093 5.08494484 14.46574557 6.74643123 17.875 8.625 C19.02742188 9.25664062 20.17984375 9.88828125 21.3671875 10.5390625 C22.67042969 11.26222656 22.67042969 11.26222656 24 12 C24 12.66 24 13.32 24 14 C24.969375 14.28875 25.93875 14.5775 26.9375 14.875 C30 16 30 16 31 18 C26.72285001 16.70137443 23.0591687 15.05950442 19.19921875 12.8125 C18.14025391 12.19632812 17.08128906 11.58015625 15.99023438 10.9453125 C14.90033203 10.30335938 13.81042969 9.66140625 12.6875 9 C11.02364258 8.03707031 11.02364258 8.03707031 9.32617188 7.0546875 C1.12748241 2.25496483 1.12748241 2.25496483 0 0 Z " fill="#333231" transform="translate(127,294)"/>
<path d="M0 0 C4.1572025 6.23580375 6.02090484 13.91112086 8.3125 21 C8.65925781 22.0725 9.00601563 23.145 9.36328125 24.25 C10 27 10 27 9 30 C0.82724719 9.0997191 0.82724719 9.0997191 0 0 Z " fill="#222222" transform="translate(34,163)"/>
<path d="M0 0 C5.34398918 0.56120263 9.41314514 2.40412149 14.125 4.8125 C14.82753906 5.15603516 15.53007812 5.49957031 16.25390625 5.85351562 C20.11899496 7.80067279 23.11951252 9.67923075 26 13 C20.30333617 11.35096573 15.25183144 8.6948173 10 6 C8.12602235 5.06045807 6.25106172 4.12287355 4.375 3.1875 C2.91666667 2.45833333 1.45833333 1.72916667 0 1 C0 0.67 0 0.34 0 0 Z " fill="#3F3E3D" transform="translate(274,177)"/>
<path d="M0 0 C-0.33 0.66 -0.66 1.32 -1 2 C-3.2466696 2.74404582 -5.52402838 3.39665424 -7.8125 4 C-12.65125206 5.22008651 -12.65125206 5.22008651 -17.19921875 7.1875 C-19.50240076 8.22667974 -20.66943197 7.83234572 -23 7 C-21.12616097 6.20558928 -19.25087114 5.41460026 -17.375 4.625 C-15.80878906 3.96371094 -15.80878906 3.96371094 -14.2109375 3.2890625 C-5.24906716 -0.30876866 -5.24906716 -0.30876866 0 0 Z " fill="#4E4E4D" transform="translate(405,147)"/>
<path d="M0 0 C1.17175781 0.22042969 2.34351563 0.44085938 3.55078125 0.66796875 C5.32001953 0.98701172 5.32001953 0.98701172 7.125 1.3125 C8.48044922 1.58126953 8.48044922 1.58126953 9.86328125 1.85546875 C9.86328125 2.18546875 9.86328125 2.51546875 9.86328125 2.85546875 C9.12722656 2.79746094 8.39117188 2.73945313 7.6328125 2.6796875 C1.20797753 2.24351168 1.20797753 2.24351168 -4.19921875 5.35546875 C-5.15828125 6.59296875 -5.15828125 6.59296875 -6.13671875 7.85546875 C-6.79671875 7.85546875 -7.45671875 7.85546875 -8.13671875 7.85546875 C-5.29103115 -0.24379596 -5.29103115 -0.24379596 0 0 Z " fill="#D0D0CE" transform="translate(507.13671875,209.14453125)"/>
<path d="M0 0 C6.83981276 0.51621228 12.63876684 2.48590969 19 5 C19 5.33 19 5.66 19 6 C12.80688638 5.42656355 6.79033135 4.35902388 1 2 C0.67 1.34 0.34 0.68 0 0 Z " fill="#4E4D4B" transform="translate(39,99)"/>
<path d="M0 0 C0.66 0.33 1.32 0.66 2 1 C-0.50529823 6.75685551 -3.15149769 12.40472761 -6 18 C-7.12150295 15.18604713 -7.00062999 14.00200428 -6.07421875 11.0546875 C-5.61660156 10.00539062 -5.15898438 8.95609375 -4.6875 7.875 C-4.23761719 6.82054687 -3.78773438 5.76609375 -3.32421875 4.6796875 C-2 2 -2 2 0 0 Z " fill="#1B1B1A" transform="translate(560,194)"/>
<path d="M0 0 C6.42590164 0.9877064 12.14202052 2.13609892 18 5 C18 5.66 18 6.32 18 7 C11.76559832 5.41039668 5.83712355 3.72399099 0 1 C0 0.67 0 0.34 0 0 Z " fill="#5C5A58" transform="translate(206,149)"/>
<path d="M0 0 C4.571279 0.54855348 8.67435795 1.41744803 13 3 C13 3.66 13 4.32 13 5 C15.97 5.495 15.97 5.495 19 6 C15.45332822 7.25127906 13.27746562 6.72285053 9.75 5.5625 C8.85796875 5.27503906 7.9659375 4.98757812 7.046875 4.69140625 C6.37140625 4.46324219 5.6959375 4.23507813 5 4 C5 3.34 5 2.68 5 2 C3.35 1.67 1.7 1.34 0 1 C0 0.67 0 0.34 0 0 Z " fill="#666666" transform="translate(61,106)"/>
<path d="M0 0 C0.66 0 1.32 0 2 0 C1.85506104 0.57524414 1.71012207 1.15048828 1.56079102 1.74316406 C1.03429677 3.86197676 0.52649115 5.98397318 0.02734375 8.109375 C-0.14990234 8.86347656 -0.32714844 9.61757812 -0.50976562 10.39453125 C-0.69216797 11.17183594 -0.87457031 11.94914063 -1.0625 12.75 C-1.24876953 13.54277344 -1.43503906 14.33554688 -1.62695312 15.15234375 C-2.08488816 17.10150314 -2.54247803 19.05074361 -3 21 C-3.33 21 -3.66 21 -4 21 C-4.21544006 15.76884607 -3.52370193 11.56214697 -2 6.5625 C-1.62875 5.32628906 -1.2575 4.09007813 -0.875 2.81640625 C-0.58625 1.88699219 -0.2975 0.95757812 0 0 Z " fill="#141413" transform="translate(582,120)"/>
<path d="M0 0 C0.33 0 0.66 0 1 0 C1.66 3.96 2.32 7.92 3 12 C3.99 11.01 4.98 10.02 6 9 C5.67 11.31 5.34 13.62 5 16 C4.01 16.33 3.02 16.66 2 17 C0.4943096 11.19233704 -0.21824777 6.0018137 0 0 Z " fill="#979797" transform="translate(166,283)"/>
<path d="M0 0 C2.55263088 2.274694 3.84144815 4.43202693 5.1875 7.5625 C5.53167969 8.34753906 5.87585937 9.13257813 6.23046875 9.94140625 C7 12 7 12 7 14 C4 13 4 13 2.83203125 11.328125 C-0.55343511 4.42748092 -0.55343511 4.42748092 0 0 Z " fill="#3F3F3E" transform="translate(55,214)"/>
<path d="M0 0 C0.66 0.33 1.32 0.66 2 1 C-1.3 4.3 -4.6 7.6 -8 11 C-8.99 10.67 -9.98 10.34 -11 10 C-3.70159453 2.51708428 -3.70159453 2.51708428 0 0 Z " fill="#343433" transform="translate(384,196)"/>
<path d="M0 0 C1.51309486 3.02618972 0.48923484 5.18704091 -0.25 8.4375 C-0.62898437 10.16806641 -0.62898437 10.16806641 -1.015625 11.93359375 C-1.96200646 14.88164711 -2.60825757 16.12557265 -5 18 C-5 14.33621967 -4.07804799 11.39508449 -3.0625 7.875 C-2.52302734 5.98394531 -2.52302734 5.98394531 -1.97265625 4.0546875 C-1 1 -1 1 0 0 Z " fill="#5B5C5B" transform="translate(565,177)"/>
<path d="M0 0 C0.33 0 0.66 0 1 0 C-0.10679612 13.10679612 -0.10679612 13.10679612 -4 17 C-3.45018084 10.95198929 -2.09570426 5.69398894 0 0 Z " fill="#3D3D3C" transform="translate(577,138)"/>
<path d="M0 0 C1 2 1 2 0.36328125 4.09375 C0.01652344 4.8878125 -0.33023438 5.681875 -0.6875 6.5 C-1.02136719 7.2940625 -1.35523438 8.088125 -1.69921875 8.90625 C-3.19558554 11.31481637 -4.3924752 11.98992724 -7 13 C-5.35821735 8.22390502 -2.73453298 4.20617096 0 0 Z " fill="#3E3F3D" transform="translate(542,229)"/>
<path d="M0 0 C0.99 0 1.98 0 3 0 C4.03307771 1.76371818 5.05112049 3.53625033 6.0625 5.3125 C6.63097656 6.29863281 7.19945313 7.28476563 7.78515625 8.30078125 C9 11 9 11 8 14 C8 13.34 8 12.68 8 12 C7.34 12 6.68 12 6 12 C5.34 9.69 4.68 7.38 4 5 C3.34 5 2.68 5 2 5 C1.34 3.35 0.68 1.7 0 0 Z " fill="#1D1D1B" transform="translate(60,228)"/>
<path d="M0 0 C0.2475 0.639375 0.495 1.27875 0.75 1.9375 C1.81562433 4.18741541 1.81562433 4.18741541 4.125 4.75 C4.74375 4.8325 5.3625 4.915 6 5 C2.52674819 6.1577506 -0.36067448 6.06866652 -4 6 C-2.84826645 3.53199953 -1.95216435 1.95216435 0 0 Z " fill="#545553" transform="translate(85,207)"/>
<path d="M0 0 C4.32239956 3.34003602 7.17477391 6.32751069 10 11 C6.82461668 10.65978036 5.97723135 9.97533396 3.75 7.5625 C2 5 2 5 2 3 C1.34 3 0.68 3 0 3 C0 2.01 0 1.02 0 0 Z " fill="#353534" transform="translate(281,338)"/>
<path d="M0 0 C0 0.66 0 1.32 0 2 C-3.85831875 5.6642613 -7.64147506 7.60791281 -13 8 C-3.28571429 0 -3.28571429 0 0 0 Z " fill="#424241" transform="translate(485,289)"/>
<path d="M0 0 C0.66 0.66 1.32 1.32 2 2 C1.8125 4 1.8125 4 1 6 C0.01 6.66 -0.98 7.32 -2 8 C-3.19232613 10.05003955 -3.19232613 10.05003955 -4 12 C-4.33 11.34 -4.66 10.68 -5 10 C-4.00390625 7.6171875 -4.00390625 7.6171875 -2.5625 4.875 C-1.85287109 3.50988281 -1.85287109 3.50988281 -1.12890625 2.1171875 C-0.75636719 1.41851562 -0.38382813 0.71984375 0 0 Z " fill="#525252" transform="translate(175,152)"/>
<path d="M0 0 C1.32 0.33 2.64 0.66 4 1 C4 3.97 4 6.94 4 10 C3.34 10 2.68 10 2 10 C1.34 6.7 0.68 3.4 0 0 Z " fill="#252523" transform="translate(433,289)"/>
<path d="M0 0 C0.33 0 0.66 0 1 0 C1.33 1.65 1.66 3.3 2 5 C2.66 5 3.32 5 4 5 C4.125 7.875 4.125 7.875 4 11 C3.34 11.66 2.68 12.32 2 13 C0.54815522 8.46298506 -0.23509196 4.81938524 0 0 Z " fill="#1B1B1B" transform="translate(167,284)"/>
<path d="M0 0 C3.45201639 1.47721422 5.64961936 3.43794001 8.25 6.125 C8.95640625 6.84945313 9.6628125 7.57390625 10.390625 8.3203125 C11.18726562 9.15175781 11.18726562 9.15175781 12 10 C7.97802227 10 6.92040205 8.7067141 4 6 C2.60644236 4.04148656 1.25717453 2.04872887 0 0 Z " fill="#1C1B1A" transform="translate(84,261)"/>
<path d="M0 0 C0.99 0.33 1.98 0.66 3 1 C2.34 1 1.68 1 1 1 C1 1.99 1 2.98 1 4 C-0.28745036 4.38922918 -1.58019597 4.76098036 -2.875 5.125 C-3.95394531 5.43824219 -3.95394531 5.43824219 -5.0546875 5.7578125 C-5.69664062 5.83773437 -6.33859375 5.91765625 -7 6 C-7.66 5.34 -8.32 4.68 -9 4 C-7.88625 3.525625 -6.7725 3.05125 -5.625 2.5625 C-3.73289006 1.74693537 -1.84287291 0.92143645 0 0 Z " fill="#5B5D5B" transform="translate(309,186)"/>
<path d="M0 0 C0.66 0.33 1.32 0.66 2 1 C-0.4137931 5.70689655 -0.4137931 5.70689655 -3 7 C-5 7 -5 7 -6.75 5.5625 C-7.1625 5.046875 -7.575 4.53125 -8 4 C-7.236875 4.0825 -6.47375 4.165 -5.6875 4.25 C-2.85416667 4.29166667 -2.85416667 4.29166667 -1.1875 2 C-0.795625 1.34 -0.40375 0.68 0 0 Z " fill="#161613" transform="translate(307,359)"/>
<path d="M0 0 C4.03520597 1.58962659 8.01811282 3.28232318 12 5 C12 5.33 12 5.66 12 6 C6.73628638 6.50130606 4.0909066 5.31168629 0 2 C0 1.34 0 0.68 0 0 Z " fill="#282826" transform="translate(423,314)"/>
<path d="M0 0 C-4.10457614 2.98514628 -6.97745369 3.2954439 -12 3 C-4.82142857 -1.78571429 -4.82142857 -1.78571429 0 0 Z " fill="#414141" transform="translate(556,103)"/>
<path d="M0 0 C2.02350324 3.03525486 2.32124018 4.19426202 2.625 7.6875 C2.69976563 8.49574219 2.77453125 9.30398437 2.8515625 10.13671875 C2.90054687 10.75160156 2.94953125 11.36648437 3 12 C1 11 1 11 0.375 9.375 C-0.12095645 6.2339425 -0.06103811 3.17398169 0 0 Z " fill="#3D3D3B" transform="translate(16,96)"/>
<path d="M0 0 C0.33 0 0.66 0 1 0 C1.17835515 4.54805635 0.99785435 7.8794254 -1 12 C-1.66 12 -2.32 12 -3 12 C-2.01 8.04 -1.02 4.08 0 0 Z " fill="#353633" transform="translate(585,108)"/>
<path d="M0 0 C0.33 0 0.66 0 1 0 C1 2.31 1 4.62 1 7 C-0.98 7.99 -0.98 7.99 -3 9 C-2.44271087 5.65626525 -1.64826111 2.96687001 0 0 Z " fill="#383838" transform="translate(116,249)"/>
<path d="M0 0 C4.455 0.99 4.455 0.99 9 2 C5 3 5 3 3 2 C2.67 2.99 2.34 3.98 2 5 C1.34 4.34 0.68 3.68 0 3 C0 2.01 0 1.02 0 0 Z " fill="#414240" transform="translate(74,147)"/>
<path d="M0 0 C2.29633824 3.44450737 2.54016485 5.93812283 3 10 C2.34 10 1.68 10 1 10 C-0.1577506 6.52674819 -0.06866652 3.63932552 0 0 Z " fill="#5A5858" transform="translate(19,106)"/>
<path d="M0 0 C-1 3 -1 3 -3 4 C-4.99960012 4.039992 -7.00047242 4.04346799 -9 4 C-3 0 -3 0 0 0 Z " fill="#575654" transform="translate(440,315)"/>
<path d="M0 0 C3.77545388 1.09068668 6.47043472 1.9083091 9 5 C4.68607774 4.5206753 2.83430453 3.2542015 0 0 Z " fill="#545454" transform="translate(236,305)"/>
<path d="M0 0 C1.0326802 2.78823655 1.04509293 3.8677274 0.0625 6.75 C-0.288125 7.4925 -0.63875 8.235 -1 9 C-1.33 9 -1.66 9 -2 9 C-2 6.69 -2 4.38 -2 2 C-1.34 2 -0.68 2 0 2 C0 1.34 0 0.68 0 0 Z " fill="#1D1D1D" transform="translate(588,102)"/>
</svg>
